<svg width="200" height="200" viewBox="0 0 200 200" fill="none" xmlns="http://www.w3.org/2000/svg">
  <circle cx="100" cy="100" r="100" fill="#050517"/>
  <path d="M100 25C108 25 115 35 125 50C135 65 155 75 175 85C185 90 190 95 190 100C190 105 185 110 175 115C155 125 135 135 125 150C115 165 108 175 100 175C92 175 85 165 75 150C65 135 45 125 25 115C15 110 10 105 10 100C10 95 15 90 25 85C45 75 65 65 75 50C85 35 92 25 100 25Z" fill="url(#paint0_linear)"/>
  <path d="M100 65C105 65 110 70 115 80C120 90 130 95 140 100C130 105 120 110 115 120C110 130 105 135 100 135C95 135 90 130 85 120C80 110 70 105 60 100C70 95 80 90 85 80C90 70 95 65 100 65Z" fill="#050517"/>
  <defs>
    <linearGradient id="paint0_linear" x1="25" y1="100" x2="175" y2="100" gradientUnits="userSpaceOnUse">
      <stop stop-color="#FACC15"/>
      <stop offset="0.3" stop-color="#F472B6"/>
      <stop offset="0.7" stop-color="#A855F7"/>
      <stop offset="1" stop-color="#22D3EE"/>
    </linearGradient>
  </defs>
</svg>
